<svg height="512" viewBox="0 0 74 74" width="512" xmlns="http://www.w3.org/2000/svg"><g id="line_color" data-name="line color"><path d="m14.063 66.81h-3.393a9.54 9.54 0 0 1 -6.1-2.209.5.5 0 0 1 .641-.769 8.534 8.534 0 0 0 5.459 1.978h3.393a.5.5 0 0 1 0 1z" fill="#323c6b"/><path d="m17.625 66.81h-.625a.5.5 0 0 1 0-1h.625a.5.5 0 0 1 0 1z" fill="#323c6b"/><path d="m43.32 58.18a5.119 5.119 0 0 1 -5.12 5.13h-27.53a6.05 6.05 0 0 1 0-12.1 6.172 6.172 0 0 1 1.44.17 6.551 6.551 0 0 1 -.14-1.34 6.37 6.37 0 0 1 2.1-4.75v-.01a6.408 6.408 0 0 1 8.07-.49 8.88 8.88 0 0 1 16.06 5.25 9.034 9.034 0 0 1 -.53 3.04 4.577 4.577 0 0 1 .53-.03 5.073 5.073 0 0 1 1.66.28h.01a5.121 5.121 0 0 1 3.45 4.85z" fill="#b6d2dd"/><path d="m38.2 63.81h-27.53a6.55 6.55 0 0 1 0-13.1 6.691 6.691 0 0 1 .838.053 6.916 6.916 0 0 1 2.171-5.792.423.423 0 0 1 .053-.058 6.912 6.912 0 0 1 8.3-.8 9.4 9.4 0 0 1 7.288-3.483 9.277 9.277 0 0 1 5.44 1.744 9.434 9.434 0 0 1 3.6 10.178 5.555 5.555 0 0 1 1.622.291.461.461 0 0 1 .05.014 5.632 5.632 0 0 1 -1.832 10.953zm-27.53-12.1a5.55 5.55 0 0 0 0 11.1h27.53a4.632 4.632 0 0 0 1.546-8.994.443.443 0 0 1 -.046-.016 4.525 4.525 0 0 0 -1.969-.226.5.5 0 0 1 -.529-.665 8.443 8.443 0 0 0 -3.021-9.725 8.286 8.286 0 0 0 -4.861-1.554 8.4 8.4 0 0 0 -6.776 3.454.5.5 0 0 1 -.7.112 5.907 5.907 0 0 0 -7.385.4.384.384 0 0 1 -.058.062 5.889 5.889 0 0 0 -1.931 4.382 6 6 0 0 0 .13 1.236.5.5 0 0 1 -.605.59 5.715 5.715 0 0 0 -1.325-.156z" fill="#323c6b"/><path d="m39.87 53.33h-.01a5.073 5.073 0 0 0 -1.66-.28 4.577 4.577 0 0 0 -.53.03 9.034 9.034 0 0 0 .53-3.04 8.916 8.916 0 0 0 -3.73-7.26 8.667 8.667 0 0 0 -6.618-1.514 8.788 8.788 0 0 1 3.618 1.514 8.916 8.916 0 0 1 3.73 7.26 9.034 9.034 0 0 1 -.53 3.04 4.577 4.577 0 0 1 .53-.03 5.073 5.073 0 0 1 1.66.28h.01a5.132 5.132 0 0 1 -1.67 9.98h3a5.132 5.132 0 0 0 1.67-9.98z" fill="#acc6cc"/><path d="m68.282 39.8a.5.5 0 0 1 -.474-.34 7.163 7.163 0 0 0 -.309-.763.5.5 0 0 1 .9-.428 8.106 8.106 0 0 1 .352.871.5.5 0 0 1 -.474.66z" fill="#323c6b"/><path d="m66.476 36.858a.5.5 0 0 1 -.356-.149 6.777 6.777 0 0 0 -4.733-2.058.5.5 0 0 1 -.4-.219 9.538 9.538 0 0 0 -2.558-2.553.5.5 0 0 1 .561-.829 10.533 10.533 0 0 1 2.677 2.61 7.779 7.779 0 0 1 5.171 2.348.5.5 0 0 1 -.356.851z" fill="#323c6b"/><path d="m71 47.59a5.605 5.605 0 0 1 -5.44 5.74h-25.7a5.073 5.073 0 0 0 -1.66-.28 4.577 4.577 0 0 0 -.53.03 9.034 9.034 0 0 0 .53-3.04 8.916 8.916 0 0 0 -3.73-7.26 5.27 5.27 0 0 1 4.73-3.05 5.086 5.086 0 0 1 3.15 1.1 4.282 4.282 0 0 1 3.2-1.47 4.17 4.17 0 0 1 1.01.13 7.253 7.253 0 0 1 2.74-5.26 6.567 6.567 0 0 1 4.06-1.42 6.837 6.837 0 0 1 6.37 4.63 4.136 4.136 0 0 1 1.54-.29 4.563 4.563 0 0 1 4.43 4.69 5.611 5.611 0 0 1 5.3 5.75z" fill="#b6d2dd"/><path d="m65.561 53.83h-25.701a.5.5 0 0 1 -.16-.03 4.525 4.525 0 0 0 -1.969-.226.5.5 0 0 1 -.529-.665 8.443 8.443 0 0 0 -3.021-9.725.5.5 0 0 1 -.159-.623 5.741 5.741 0 0 1 5.178-3.331 5.527 5.527 0 0 1 3.093.942 4.668 4.668 0 0 1 3.824-1.272 7.729 7.729 0 0 1 2.875-5.062 7.046 7.046 0 0 1 4.368-1.528 7.352 7.352 0 0 1 6.66 4.506 4.716 4.716 0 0 1 1.249-.167 5.046 5.046 0 0 1 4.911 4.722 6.27 6.27 0 0 1 -.62 12.458zm-25.618-1h25.618a5.259 5.259 0 0 0 .126-10.49.5.5 0 0 1 -.486-.5 4.071 4.071 0 0 0 -3.931-4.19 3.612 3.612 0 0 0 -1.354.255.5.5 0 0 1 -.654-.295 6.377 6.377 0 0 0 -5.9-4.3 6.056 6.056 0 0 0 -3.753 1.314 6.753 6.753 0 0 0 -2.548 4.9.5.5 0 0 1 -.62.453 3.664 3.664 0 0 0 -3.717 1.188.5.5 0 0 1 -.682.061 4.57 4.57 0 0 0 -2.842-.996 4.724 4.724 0 0 0 -4.09 2.407 9.434 9.434 0 0 1 3.25 9.915 5.541 5.541 0 0 1 1.582.278z" fill="#323c6b"/><path d="m65.7 41.84a4.563 4.563 0 0 0 -4.43-4.69 4.136 4.136 0 0 0 -1.54.29 6.837 6.837 0 0 0 -6.37-4.63 6.567 6.567 0 0 0 -4.06 1.42 7.061 7.061 0 0 0 -1.561 1.709 6.5 6.5 0 0 1 3.62-1.129 6.837 6.837 0 0 1 6.37 4.63 4.136 4.136 0 0 1 1.54-.29 4.563 4.563 0 0 1 4.43 4.69 5.611 5.611 0 0 1 5.301 5.75 5.927 5.927 0 0 1 -.832 3.034 5.8 5.8 0 0 0 2.832-5.034 5.611 5.611 0 0 0 -5.3-5.75z" fill="#acc6cc"/><path d="m65.561 53.83h-25.701a.5.5 0 0 1 -.16-.03 4.525 4.525 0 0 0 -1.969-.226.5.5 0 0 1 -.529-.665 8.443 8.443 0 0 0 -3.021-9.725.5.5 0 0 1 -.159-.623 5.741 5.741 0 0 1 5.178-3.331 5.527 5.527 0 0 1 3.093.942 4.668 4.668 0 0 1 3.824-1.272 7.729 7.729 0 0 1 2.875-5.062 7.046 7.046 0 0 1 4.368-1.528 7.352 7.352 0 0 1 6.66 4.506 4.716 4.716 0 0 1 1.249-.167 5.046 5.046 0 0 1 4.911 4.722 6.27 6.27 0 0 1 -.62 12.458zm-25.618-1h25.618a5.259 5.259 0 0 0 .126-10.49.5.5 0 0 1 -.486-.5 4.071 4.071 0 0 0 -3.931-4.19 3.612 3.612 0 0 0 -1.354.255.5.5 0 0 1 -.654-.295 6.377 6.377 0 0 0 -5.9-4.3 6.056 6.056 0 0 0 -3.753 1.314 6.753 6.753 0 0 0 -2.548 4.9.5.5 0 0 1 -.62.453 3.664 3.664 0 0 0 -3.717 1.188.5.5 0 0 1 -.682.061 4.57 4.57 0 0 0 -2.842-.996 4.724 4.724 0 0 0 -4.09 2.407 9.434 9.434 0 0 1 3.25 9.915 5.541 5.541 0 0 1 1.582.278z" fill="#323c6b"/><path d="m38.2 63.81h-27.53a6.55 6.55 0 0 1 0-13.1 6.691 6.691 0 0 1 .838.053 6.916 6.916 0 0 1 2.171-5.792.423.423 0 0 1 .053-.058 6.912 6.912 0 0 1 8.3-.8 9.4 9.4 0 0 1 7.288-3.483 9.277 9.277 0 0 1 5.44 1.744 9.434 9.434 0 0 1 3.6 10.178 5.555 5.555 0 0 1 1.622.291.461.461 0 0 1 .05.014 5.632 5.632 0 0 1 -1.832 10.953zm-27.53-12.1a5.55 5.55 0 0 0 0 11.1h27.53a4.632 4.632 0 0 0 1.546-8.994.443.443 0 0 1 -.046-.016 4.525 4.525 0 0 0 -1.969-.226.5.5 0 0 1 -.529-.665 8.443 8.443 0 0 0 -3.021-9.725 8.286 8.286 0 0 0 -4.861-1.554 8.4 8.4 0 0 0 -6.776 3.454.5.5 0 0 1 -.7.112 5.907 5.907 0 0 0 -7.385.4.384.384 0 0 1 -.058.062 5.889 5.889 0 0 0 -1.931 4.382 6 6 0 0 0 .13 1.236.5.5 0 0 1 -.605.59 5.715 5.715 0 0 0 -1.325-.156z" fill="#323c6b"/><path d="m49.3 34.23a7.253 7.253 0 0 0 -2.74 5.26 4.17 4.17 0 0 0 -1.01-.13 4.282 4.282 0 0 0 -3.2 1.47 5.086 5.086 0 0 0 -3.15-1.1 5.27 5.27 0 0 0 -4.73 3.05 8.869 8.869 0 0 0 -12.33 2.01 6.408 6.408 0 0 0 -8.07.49 18.06 18.06 0 0 1 -1.04-6.08 18.476 18.476 0 0 1 36.27-4.97z" fill="#fed19a"/><path d="m13.854 46.161-.254-.712a18.546 18.546 0 0 1 -1.07-6.249 18.976 18.976 0 0 1 37.251-5.1l.09.322-.264.206a6.753 6.753 0 0 0 -2.548 4.9l-.039.6-.581-.146a3.664 3.664 0 0 0 -3.717 1.188l-.312.351-.37-.29a4.57 4.57 0 0 0 -2.84-1.001 4.752 4.752 0 0 0 -4.28 2.77l-.258.537-.483-.347a8.286 8.286 0 0 0 -4.859-1.56 8.4 8.4 0 0 0 -6.776 3.454l-.293.4-.4-.292a5.906 5.906 0 0 0 -7.437.453zm17.656-24.931a18 18 0 0 0 -17.98 17.97 17.625 17.625 0 0 0 .784 5.231 7.048 7.048 0 0 1 7.714-.318 9.4 9.4 0 0 1 7.292-3.483 9.277 9.277 0 0 1 4.971 1.428 5.712 5.712 0 0 1 4.909-2.828 5.527 5.527 0 0 1 3.093.942 4.668 4.668 0 0 1 3.824-1.272 7.744 7.744 0 0 1 2.611-4.846 18 18 0 0 0 -17.218-12.824z" fill="#323c6b"/><path d="m46.127 39.407c.147.022.293.048.433.083.015-.225.045-.444.078-.663a7.055 7.055 0 0 0 -.511.58z" fill="#f4bb87"/><path d="m31.51 20.73a18.469 18.469 0 0 0 -17.374 12.224 18.465 18.465 0 0 1 32.885 4.412 7.151 7.151 0 0 1 2.279-3.136 18.46 18.46 0 0 0 -17.79-13.5z" fill="#f4bb87"/><g fill="#323c6b"><path d="m31.51 16.813a.5.5 0 0 1 -.5-.5v-5.627a.5.5 0 1 1 1 0v5.628a.5.5 0 0 1 -.5.499z"/><path d="m25.591 17.621a.5.5 0 0 1 -.483-.371l-.8-2.99a.5.5 0 0 1 .965-.26l.8 2.99a.5.5 0 0 1 -.354.612.487.487 0 0 1 -.128.019z"/><path d="m20.083 19.932a.5.5 0 0 1 -.433-.25l-1.55-2.682a.5.5 0 1 1 .865-.5l1.548 2.681a.5.5 0 0 1 -.433.75z"/><path d="m11.746 28.346a.5.5 0 0 1 -.25-.067l-2.681-1.548a.5.5 0 0 1 .5-.866l2.685 1.548a.5.5 0 0 1 -.25.933z"/><path d="m9.486 33.875a.5.5 0 0 1 -.13-.017l-2.99-.8a.5.5 0 1 1 .26-.966l2.99.8a.5.5 0 0 1 -.13.983z"/><path d="m6.551 46.521a.5.5 0 0 1 -.13-.983l2.99-.8a.5.5 0 1 1 .26.966l-2.99.8a.5.5 0 0 1 -.13.017z"/><path d="m51.484 28.346a.5.5 0 0 1 -.25-.933l2.681-1.548a.5.5 0 0 1 .5.866l-2.681 1.548a.5.5 0 0 1 -.25.067z"/><path d="m43.147 19.932a.5.5 0 0 1 -.433-.75l1.549-2.682a.5.5 0 1 1 .865.5l-1.548 2.682a.5.5 0 0 1 -.433.25z"/><path d="m37.64 17.621a.487.487 0 0 1 -.129-.017.5.5 0 0 1 -.354-.612l.8-2.99a.5.5 0 0 1 .967.259l-.8 2.99a.5.5 0 0 1 -.484.37z"/><path d="m8.628 39.7h-5.628a.5.5 0 0 1 0-1h5.628a.5.5 0 1 1 0 1z"/><path d="m15.33 23.516a.5.5 0 0 1 -.354-.146l-4.226-4.228a.5.5 0 0 1 .707-.707l4.227 4.227a.5.5 0 0 1 -.354.854z"/><path d="m47.689 23.516a.5.5 0 0 1 -.354-.854l4.228-4.227a.5.5 0 0 1 .707.707l-4.228 4.227a.5.5 0 0 1 -.353.147z"/><path d="m13.854 46.161-.254-.712a18.546 18.546 0 0 1 -1.07-6.249 18.976 18.976 0 0 1 37.251-5.1l.09.322-.264.206a6.753 6.753 0 0 0 -2.548 4.9l-.039.6-.581-.146a3.664 3.664 0 0 0 -3.717 1.188l-.312.351-.37-.29a4.57 4.57 0 0 0 -2.84-1.001 4.752 4.752 0 0 0 -4.28 2.77l-.258.537-.483-.347a8.286 8.286 0 0 0 -4.859-1.56 8.4 8.4 0 0 0 -6.776 3.454l-.293.4-.4-.292a5.906 5.906 0 0 0 -7.437.453zm17.656-24.931a18 18 0 0 0 -17.98 17.97 17.625 17.625 0 0 0 .784 5.231 7.048 7.048 0 0 1 7.714-.318 9.4 9.4 0 0 1 7.292-3.483 9.277 9.277 0 0 1 4.971 1.428 5.712 5.712 0 0 1 4.909-2.828 5.527 5.527 0 0 1 3.093.942 4.668 4.668 0 0 1 3.824-1.272 7.744 7.744 0 0 1 2.611-4.846 18 18 0 0 0 -17.218-12.824z"/><path d="m13.854 46.161-.254-.712a18.546 18.546 0 0 1 -1.07-6.249 18.976 18.976 0 0 1 37.251-5.1l.09.322-.264.206a6.753 6.753 0 0 0 -2.548 4.9l-.039.6-.581-.146a3.664 3.664 0 0 0 -3.717 1.188l-.312.351-.37-.29a4.57 4.57 0 0 0 -2.84-1.001 4.752 4.752 0 0 0 -4.28 2.77l-.258.537-.483-.347a8.286 8.286 0 0 0 -4.859-1.56 8.4 8.4 0 0 0 -6.776 3.454l-.293.4-.4-.292a5.906 5.906 0 0 0 -7.437.453zm17.656-24.931a18 18 0 0 0 -17.98 17.97 17.625 17.625 0 0 0 .784 5.231 7.048 7.048 0 0 1 7.714-.318 9.4 9.4 0 0 1 7.292-3.483 9.277 9.277 0 0 1 4.971 1.428 5.712 5.712 0 0 1 4.909-2.828 5.527 5.527 0 0 1 3.093.942 4.668 4.668 0 0 1 3.824-1.272 7.744 7.744 0 0 1 2.611-4.846 18 18 0 0 0 -17.218-12.824z"/></g><g fill="#eeefee"><path d="m23.24 27.168c-.013-.02-.026-.039-.041-.058a.9.9 0 0 0 -1.262-.167 4.154 4.154 0 0 0 -.688.589.9.9 0 1 0 1.245 1.3 2.853 2.853 0 0 1 .539-.46.9.9 0 0 0 .207-1.204z"/><path d="m20.427 30.241a.9.9 0 0 0 -1.476-.127 13.591 13.591 0 0 0 -2.663 10.912.9.9 0 0 0 1.8.036 11.9 11.9 0 0 1 2.25-9.8.9.9 0 0 0 .089-1.021z"/></g></g></svg>