<svg height="512" viewBox="0 0 74 74" width="512" xmlns="http://www.w3.org/2000/svg"><g id="line_color" data-name="line color"><g fill="#323c6b"><path d="m60.82 50.809a.5.5 0 0 1 -.366-.841l2.282-2.451a.5.5 0 0 1 .731.682l-2.282 2.451a.5.5 0 0 1 -.365.159z"/><path d="m48.642 50.809a.5.5 0 0 1 -.366-.841l2.282-2.451a.5.5 0 1 1 .731.682l-2.282 2.451a.5.5 0 0 1 -.365.159z"/><path d="m24.287 50.809a.5.5 0 0 1 -.366-.841l2.279-2.451a.5.5 0 0 1 .731.682l-2.282 2.451a.5.5 0 0 1 -.362.159z"/><path d="m12.109 50.809a.5.5 0 0 1 -.366-.841l2.281-2.451a.5.5 0 0 1 .732.682l-2.281 2.451a.5.5 0 0 1 -.366.159z"/><path d="m65.458 58.372a.5.5 0 0 1 -.366-.841l2.282-2.451a.5.5 0 1 1 .731.682l-2.282 2.451a.5.5 0 0 1 -.365.159z"/><path d="m53.281 58.372a.5.5 0 0 1 -.366-.841l2.285-2.45a.5.5 0 0 1 .731.682l-2.282 2.451a.5.5 0 0 1 -.368.158z"/><path d="m16.748 58.372a.5.5 0 0 1 -.366-.841l2.282-2.451a.5.5 0 1 1 .731.682l-2.282 2.451a.5.5 0 0 1 -.365.159z"/><path d="m57.812 65.936a.5.5 0 0 1 -.366-.841l2.282-2.451a.5.5 0 0 1 .731.682l-2.282 2.451a.5.5 0 0 1 -.365.159z"/><path d="m45.634 65.936a.5.5 0 0 1 -.366-.841l2.282-2.451a.5.5 0 0 1 .731.682l-2.281 2.45a.5.5 0 0 1 -.366.16z"/><path d="m21.279 65.936a.5.5 0 0 1 -.366-.841l2.282-2.451a.5.5 0 0 1 .731.682l-2.282 2.451a.5.5 0 0 1 -.365.159z"/><path d="m9.1 65.936a.5.5 0 0 1 -.366-.841l2.282-2.451a.5.5 0 0 1 .731.682l-2.28 2.45a.5.5 0 0 1 -.367.16z"/><path d="m51.17 5.25a.5.5 0 0 1 -.312-.11q-.166-.133-.336-.262a.5.5 0 1 1 .605-.8q.179.136.356.278a.5.5 0 0 1 -.313.89z"/><path d="m48.971 3.782a.5.5 0 0 1 -.24-.062 14.15 14.15 0 0 0 -10.838-1.1.5.5 0 0 1 -.294-.956 15.164 15.164 0 0 1 11.613 1.18.5.5 0 0 1 -.241.938z"/><path d="m9.174 38.246a.5.5 0 0 1 -.352-.145 14.637 14.637 0 0 1 -4.137-8.2.5.5 0 0 1 .989-.147 13.632 13.632 0 0 0 3.852 7.636.5.5 0 0 1 -.352.855z"/><path d="m11.78 40.258a.5.5 0 0 1 -.253-.069q-.267-.157-.526-.327a.5.5 0 0 1 .547-.837q.24.157.487.3a.5.5 0 0 1 -.254.931z"/></g><path d="m18.262 38.535c-5.657 0-10.24-4.861-10.24-10.861s4.584-10.861 10.24-10.861c.146 0 .293.005.434.01a8.063 8.063 0 0 1 -.434-2.627 7.488 7.488 0 0 1 7.261-7.7 7.194 7.194 0 0 1 6.325 3.925 11.9 11.9 0 0 1 10.176-5.921c6.666 0 12.069 5.73 12.069 12.8 0 .207 0 .414-.015.615a9.764 9.764 0 0 1 4.5-1.1c5.657 0 10.24 4.861 10.24 10.861s-4.584 10.861-10.24 10.861z" fill="#b6d2dd"/><path d="m58.58 39.035h-40.318c-5.922 0-10.74-5.1-10.74-11.36 0-6.18 4.689-11.223 10.5-11.358a8.64 8.64 0 0 1 -.261-2.12 8 8 0 0 1 7.762-8.197 7.653 7.653 0 0 1 6.34 3.476 12.287 12.287 0 0 1 10.161-5.476c6.876 0 12.476 5.871 12.568 13.123a10.155 10.155 0 0 1 3.987-.809c5.922 0 10.74 5.1 10.74 11.361s-4.819 11.36-10.739 11.36zm-40.318-21.721c-5.371 0-9.74 4.648-9.74 10.361s4.37 10.36 9.74 10.36h40.318c5.371 0 9.74-4.647 9.74-10.36s-4.37-10.361-9.74-10.361a9.215 9.215 0 0 0 -4.271 1.046.5.5 0 0 1 -.729-.469c.009-.193.014-.393.014-.591-.001-6.782-5.194-12.3-11.57-12.3a11.36 11.36 0 0 0 -9.748 5.684.555.555 0 0 1 -.442.243.5.5 0 0 1 -.428-.266 6.713 6.713 0 0 0 -5.883-3.661 7 7 0 0 0 -6.761 7.2 7.551 7.551 0 0 0 .407 2.464.5.5 0 0 1 -.49.662c-.153-.007-.285-.012-.417-.012z" fill="#323c6b"/><path d="m23.523 8.5a7.193 7.193 0 0 1 6.324 3.925 12.684 12.684 0 0 1 1.8-2.327 7.01 7.01 0 0 0 -12.01-.4 6.925 6.925 0 0 1 3.886-1.198z" fill="#acc6cc"/><path d="m58.579 16.814a9.764 9.764 0 0 0 -4.5 1.1c.01-.2.015-.409.015-.615 0-7.07-5.4-12.8-12.069-12.8a11.755 11.755 0 0 0 -9.2 4.53 11.557 11.557 0 0 1 7.2-2.53c6.666 0 12.069 5.73 12.069 12.8 0 .207 0 .414-.015.615a9.764 9.764 0 0 1 4.5-1.1c5.656 0 10.24 4.861 10.24 10.861a11.223 11.223 0 0 1 -2.27 6.812 11.048 11.048 0 0 0 4.27-8.812c.001-6-4.583-10.861-10.24-10.861z" fill="#acc6cc"/><path d="m34.664 44.366h9.207l-4.993 10.26h4.993l-12.641 17.874 2.837-13.335h-4.448z" fill="#fed19a"/><path d="m31.23 73a.5.5 0 0 1 -.489-.6l2.708-12.73h-3.83a.5.5 0 0 1 -.473-.67l5.045-14.8a.5.5 0 0 1 .473-.339h9.207a.5.5 0 0 1 .45.719l-4.643 9.542h4.193a.5.5 0 0 1 .408.789l-12.64 17.878a.5.5 0 0 1 -.409.211zm-.913-14.334h3.75a.5.5 0 0 1 .489.6l-2.331 10.962 10.68-15.1h-4.027a.5.5 0 0 1 -.45-.719l4.643-9.542h-8.05z" fill="#323c6b"/><path d="m38.659 55.125 5.212-10.759h-3l-5.212 10.759z" fill="#f4bb87"/><path d="m32.521 66.433-1.291 6.067 12.641-17.874h-3z" fill="#f4bb87"/><path d="m58.58 39.035h-40.318c-5.922 0-10.74-5.1-10.74-11.36 0-6.18 4.689-11.223 10.5-11.358a8.64 8.64 0 0 1 -.261-2.12 8 8 0 0 1 7.762-8.197 7.653 7.653 0 0 1 6.34 3.476 12.287 12.287 0 0 1 10.161-5.476c6.876 0 12.476 5.871 12.568 13.123a10.155 10.155 0 0 1 3.987-.809c5.922 0 10.74 5.1 10.74 11.361s-4.819 11.36-10.739 11.36zm-40.318-21.721c-5.371 0-9.74 4.648-9.74 10.361s4.37 10.36 9.74 10.36h40.318c5.371 0 9.74-4.647 9.74-10.36s-4.37-10.361-9.74-10.361a9.215 9.215 0 0 0 -4.271 1.046.5.5 0 0 1 -.729-.469c.009-.193.014-.393.014-.591-.001-6.782-5.194-12.3-11.57-12.3a11.36 11.36 0 0 0 -9.748 5.684.555.555 0 0 1 -.442.243.5.5 0 0 1 -.428-.266 6.713 6.713 0 0 0 -5.883-3.661 7 7 0 0 0 -6.761 7.2 7.551 7.551 0 0 0 .407 2.464.5.5 0 0 1 -.49.662c-.153-.007-.285-.012-.417-.012z" fill="#323c6b"/><path d="m31.23 73a.5.5 0 0 1 -.489-.6l2.708-12.73h-3.83a.5.5 0 0 1 -.473-.67l5.045-14.8a.5.5 0 0 1 .473-.339h9.207a.5.5 0 0 1 .45.719l-4.643 9.542h4.193a.5.5 0 0 1 .408.789l-12.64 17.878a.5.5 0 0 1 -.409.211zm-.913-14.334h3.75a.5.5 0 0 1 .489.6l-2.331 10.962 10.68-15.1h-4.027a.5.5 0 0 1 -.45-.719l4.643-9.542h-8.05z" fill="#323c6b"/><g fill="#eeefee"><path d="m16.385 19.775c-.008-.015-.016-.031-.025-.046a.664.664 0 0 0 -.911-.23 3.066 3.066 0 0 0 -.555.373.664.664 0 1 0 .8 1.06 2.106 2.106 0 0 1 .435-.291.664.664 0 0 0 .256-.866z"/><path d="m14.1 21.665a.665.665 0 0 0 -1.089-.094 12.384 12.384 0 0 0 -2.7 8.054.664.664 0 0 0 1.329.026 11.149 11.149 0 0 1 2.4-7.234.665.665 0 0 0 .06-.752z"/></g></g></svg>