<svg height="512" viewBox="0 0 74 74" width="512" xmlns="http://www.w3.org/2000/svg"><g id="line_color" data-name="line color"><g fill="#323c6b"><path d="m12.783 13.648a.5.5 0 0 1 -.32-.884 13.956 13.956 0 0 1 8.911-3.225.5.5 0 0 1 0 1 12.95 12.95 0 0 0 -8.274 2.993.5.5 0 0 1 -.317.116z"/><path d="m10.639 15.9a.5.5 0 0 1 -.4-.8q.231-.307.479-.6a.5.5 0 0 1 .764.646q-.23.272-.446.558a.5.5 0 0 1 -.397.196z"/><path d="m67.985 42.917a.5.5 0 0 1 -.291-.906q.267-.192.526-.4a.5.5 0 1 1 .619.785q-.277.218-.563.424a.494.494 0 0 1 -.291.097z"/><path d="m70.581 40.515a.5.5 0 0 1 -.383-.822 14.028 14.028 0 0 0 3.3-8.655.5.5 0 1 1 1 .024 15.036 15.036 0 0 1 -3.531 9.275.5.5 0 0 1 -.386.178z"/></g><path d="m60.544 41.86c5.769 0 10.456-5.398 10.456-11.167a10.452 10.452 0 0 0 -14.361-9.693c.022-.249.028-.5.028-.758a10.442 10.442 0 0 0 -17.948-7.263 7.934 7.934 0 0 0 -14.089.581 10.179 10.179 0 0 0 -3.255-.52 10.444 10.444 0 0 0 -10.447 10.445 10.283 10.283 0 0 0 .31 2.53c-.105-.006-.21-.006-.31-.006a7.925 7.925 0 1 0 0 15.85z" fill="#eeefee"/><path d="m60.544 42.36h-49.616a8.425 8.425 0 0 1 -.312-16.844 10.959 10.959 0 0 1 10.758-12.977 10.761 10.761 0 0 1 3 .416 8.434 8.434 0 0 1 14.442-.771 10.816 10.816 0 0 1 7.406-2.89 10.959 10.959 0 0 1 10.945 10.947v.036a10.95 10.95 0 0 1 14.333 10.416c0 6.215-5.12 11.667-10.956 11.667zm-49.592-15.85h-.024a7.425 7.425 0 1 0 0 14.85h49.616c5.3 0 9.956-4.984 9.956-10.667a9.952 9.952 0 0 0 -13.674-9.23.5.5 0 0 1 -.685-.507c.021-.235.025-.475.025-.715a9.958 9.958 0 0 0 -9.946-9.947 9.831 9.831 0 0 0 -7.142 3.03.5.5 0 0 1 -.795-.1 7.434 7.434 0 0 0 -13.2.545.5.5 0 0 1 -.613.263 9.679 9.679 0 0 0 -3.1-.494 9.958 9.958 0 0 0 -9.946 9.947 9.844 9.844 0 0 0 .294 2.408.5.5 0 0 1 -.1.441.531.531 0 0 1 -.414.181c-.081-.005-.169-.005-.252-.005z" fill="#323c6b"/><path d="m36.652 14.818a10.409 10.409 0 0 1 1.865-1.518c-1.517-2.612-4.423-4.33-6.696-4.33a7.905 7.905 0 0 0 -1.5.159 9.221 9.221 0 0 1 6.331 5.689z" fill="#dbd8dd"/><path d="m53.667 20.241c0 .255-.005.509-.028.758a10.48 10.48 0 0 1 3.026-.715c0-.015 0-.029 0-.043a10.372 10.372 0 0 0 -11.944-10.326 10.441 10.441 0 0 1 8.946 10.326z" fill="#dbd8dd"/><path d="m21.63 13.559c.081-.174.184-.333.277-.5-.177-.009-.353-.021-.532-.021a10.485 10.485 0 0 0 -1.467.115 9.861 9.861 0 0 1 1.722.406z" fill="#acc6cc"/><path d="m60.553 20.241a10.421 10.421 0 0 0 -1.5.12 10.443 10.443 0 0 1 8.947 10.332c0 5.769-4.687 11.166-10.456 11.166h3c5.769.001 10.456-5.397 10.456-11.166a10.449 10.449 0 0 0 -10.447-10.452z" fill="#dbd8dd"/><path d="m18.33 52.221a3.093 3.093 0 1 1 -5.815-2.109c.583-1.607 4.835-4.259 4.835-4.259s1.563 4.761.98 6.368z" fill="#b6d2dd"/><path d="m15.425 54.761a3.6 3.6 0 0 1 -3.379-4.819c.624-1.72 4.59-4.232 5.04-4.513a.5.5 0 0 1 .739.269c.166.5 1.6 4.974.975 6.694a3.6 3.6 0 0 1 -3.375 2.369zm1.645-8.132c-1.588 1.051-3.743 2.715-4.084 3.653a2.593 2.593 0 0 0 4.875 1.769c.339-.939-.248-3.597-.792-5.422z" fill="#323c6b"/><path d="m17.351 45.853s-.75.469-1.662 1.13c.423 1.51 1.045 4.127.642 5.239a3.074 3.074 0 0 1 -1.923 1.863 3.091 3.091 0 0 0 3.923-1.863c.582-1.608-.98-6.369-.98-6.369z" fill="#acc6cc"/><path d="m32.2 52.221a3.093 3.093 0 1 1 -5.815-2.109c.583-1.607 4.835-4.259 4.835-4.259s1.565 4.761.98 6.368z" fill="#b6d2dd"/><path d="m29.3 54.761a3.6 3.6 0 0 1 -3.379-4.819c.624-1.72 4.59-4.232 5.04-4.513a.5.5 0 0 1 .739.269c.166.5 1.6 4.974.975 6.694a3.6 3.6 0 0 1 -3.375 2.369zm1.645-8.132c-1.588 1.051-3.743 2.715-4.084 3.653a2.593 2.593 0 0 0 4.875 1.769c.335-.939-.252-3.597-.796-5.422z" fill="#323c6b"/><path d="m31.222 45.853s-.75.469-1.662 1.13c.423 1.51 1.045 4.127.642 5.239a3.074 3.074 0 0 1 -1.923 1.863 3.091 3.091 0 0 0 3.921-1.864c.584-1.607-.978-6.368-.978-6.368z" fill="#acc6cc"/><path d="m46.072 52.221a3.093 3.093 0 1 1 -5.815-2.109c.583-1.607 4.835-4.259 4.835-4.259s1.564 4.761.98 6.368z" fill="#b6d2dd"/><path d="m43.167 54.761a3.6 3.6 0 0 1 -3.379-4.819c.624-1.72 4.59-4.232 5.04-4.513a.5.5 0 0 1 .739.269c.166.5 1.6 4.974.975 6.694a3.6 3.6 0 0 1 -3.375 2.369zm1.645-8.132c-1.588 1.051-3.743 2.715-4.084 3.653a2.593 2.593 0 0 0 4.872 1.769c.342-.939-.245-3.597-.788-5.422z" fill="#323c6b"/><path d="m45.093 45.853s-.75.469-1.662 1.13c.423 1.51 1.045 4.127.642 5.239a3.074 3.074 0 0 1 -1.923 1.863 3.091 3.091 0 0 0 3.923-1.863c.583-1.608-.98-6.369-.98-6.369z" fill="#acc6cc"/><path d="m59.944 52.221a3.093 3.093 0 1 1 -5.815-2.109c.583-1.607 4.835-4.259 4.835-4.259s1.563 4.761.98 6.368z" fill="#b6d2dd"/><path d="m57.038 54.761a3.6 3.6 0 0 1 -3.379-4.819c.624-1.72 4.59-4.232 5.04-4.513a.5.5 0 0 1 .739.269c.166.5 1.6 4.974.975 6.694a3.6 3.6 0 0 1 -3.375 2.369zm1.645-8.132c-1.588 1.051-3.743 2.715-4.084 3.653a2.593 2.593 0 0 0 4.875 1.769c.339-.939-.247-3.597-.791-5.422z" fill="#323c6b"/><path d="m58.964 45.853s-.75.469-1.662 1.13c.423 1.51 1.045 4.127.642 5.239a3.074 3.074 0 0 1 -1.923 1.863 3.091 3.091 0 0 0 3.923-1.863c.583-1.608-.98-6.369-.98-6.369z" fill="#acc6cc"/><g fill="#323c6b"><path d="m57.038 54.761a3.6 3.6 0 0 1 -3.379-4.819c.624-1.72 4.59-4.232 5.04-4.513a.5.5 0 0 1 .739.269c.166.5 1.6 4.974.975 6.694a3.6 3.6 0 0 1 -3.375 2.369zm1.645-8.132c-1.588 1.051-3.743 2.715-4.084 3.653a2.593 2.593 0 0 0 4.875 1.769c.339-.939-.247-3.597-.791-5.422z"/><path d="m43.167 54.761a3.6 3.6 0 0 1 -3.379-4.819c.624-1.72 4.59-4.232 5.04-4.513a.5.5 0 0 1 .739.269c.166.5 1.6 4.974.975 6.694a3.6 3.6 0 0 1 -3.375 2.369zm1.645-8.132c-1.588 1.051-3.743 2.715-4.084 3.653a2.593 2.593 0 0 0 4.872 1.769c.342-.939-.245-3.597-.788-5.422z"/><path d="m29.3 54.761a3.6 3.6 0 0 1 -3.379-4.819c.624-1.72 4.59-4.232 5.04-4.513a.5.5 0 0 1 .739.269c.166.5 1.6 4.974.975 6.694a3.6 3.6 0 0 1 -3.375 2.369zm1.645-8.132c-1.588 1.051-3.743 2.715-4.084 3.653a2.593 2.593 0 0 0 4.875 1.769c.335-.939-.252-3.597-.796-5.422z"/><path d="m15.425 54.761a3.6 3.6 0 0 1 -3.379-4.819c.624-1.72 4.59-4.232 5.04-4.513a.5.5 0 0 1 .739.269c.166.5 1.6 4.974.975 6.694a3.6 3.6 0 0 1 -3.375 2.369zm1.645-8.132c-1.588 1.051-3.743 2.715-4.084 3.653a2.593 2.593 0 0 0 4.875 1.769c.339-.939-.248-3.597-.792-5.422z"/></g><path d="m24.462 63.991a3.093 3.093 0 0 1 -5.815-2.109c.583-1.607 4.835-4.259 4.835-4.259s1.563 4.761.98 6.368z" fill="#b6d2dd"/><path d="m21.557 66.531a3.61 3.61 0 0 1 -1.228-.217 3.593 3.593 0 0 1 -2.151-4.6c.624-1.72 4.589-4.231 5.039-4.512a.5.5 0 0 1 .739.269c.166.5 1.6 4.974.976 6.694a3.6 3.6 0 0 1 -3.375 2.37zm1.643-8.131c-1.588 1.051-3.742 2.715-4.083 3.653a2.593 2.593 0 0 0 4.875 1.768c.34-.939-.247-3.597-.792-5.421z" fill="#323c6b"/><path d="m23.482 57.623s-.75.469-1.662 1.13c.423 1.51 1.045 4.127.642 5.239a3.074 3.074 0 0 1 -1.923 1.863 3.091 3.091 0 0 0 3.923-1.863c.583-1.608-.98-6.369-.98-6.369z" fill="#acc6cc"/><path d="m38.333 63.991a3.093 3.093 0 0 1 -5.815-2.109c.583-1.607 4.835-4.259 4.835-4.259s1.563 4.761.98 6.368z" fill="#b6d2dd"/><path d="m35.421 66.529a3.592 3.592 0 0 1 -3.373-4.817c.625-1.72 4.59-4.232 5.04-4.513a.5.5 0 0 1 .739.269c.166.5 1.6 4.974.976 6.694a3.6 3.6 0 0 1 -3.382 2.367zm1.65-8.13c-1.588 1.051-3.743 2.715-4.084 3.654a2.593 2.593 0 0 0 4.876 1.767c.337-.938-.247-3.596-.792-5.42z" fill="#323c6b"/><path d="m37.353 57.623s-.75.469-1.662 1.13c.423 1.51 1.045 4.127.642 5.239a3.074 3.074 0 0 1 -1.923 1.863 3.091 3.091 0 0 0 3.923-1.863c.583-1.608-.98-6.369-.98-6.369z" fill="#acc6cc"/><path d="m52.2 63.991a3.093 3.093 0 0 1 -5.815-2.109c.583-1.607 4.835-4.259 4.835-4.259s1.567 4.761.98 6.368z" fill="#b6d2dd"/><path d="m49.293 66.53a3.593 3.593 0 0 1 -3.374-4.818c.624-1.72 4.59-4.232 5.04-4.513a.5.5 0 0 1 .739.269c.166.5 1.6 4.974.976 6.694a3.6 3.6 0 0 1 -3.381 2.368zm1.649-8.13c-1.588 1.051-3.743 2.715-4.084 3.654a2.593 2.593 0 0 0 4.876 1.768c.34-.94-.247-3.598-.792-5.422z" fill="#323c6b"/><path d="m51.224 57.623s-.75.469-1.662 1.13c.423 1.51 1.045 4.127.642 5.239a3.074 3.074 0 0 1 -1.923 1.863 3.091 3.091 0 0 0 3.919-1.864c.587-1.607-.976-6.368-.976-6.368z" fill="#acc6cc"/><path d="m49.293 66.53a3.593 3.593 0 0 1 -3.374-4.818c.624-1.72 4.59-4.232 5.04-4.513a.5.5 0 0 1 .739.269c.166.5 1.6 4.974.976 6.694a3.6 3.6 0 0 1 -3.381 2.368zm1.649-8.13c-1.588 1.051-3.743 2.715-4.084 3.654a2.593 2.593 0 0 0 4.876 1.768c.34-.94-.247-3.598-.792-5.422z" fill="#323c6b"/><path d="m35.421 66.529a3.592 3.592 0 0 1 -3.373-4.817c.625-1.72 4.59-4.232 5.04-4.513a.5.5 0 0 1 .739.269c.166.5 1.6 4.974.976 6.694a3.6 3.6 0 0 1 -3.382 2.367zm1.65-8.13c-1.588 1.051-3.743 2.715-4.084 3.654a2.593 2.593 0 0 0 4.876 1.767c.337-.938-.247-3.596-.792-5.42z" fill="#323c6b"/><path d="m21.557 66.531a3.61 3.61 0 0 1 -1.228-.217 3.593 3.593 0 0 1 -2.151-4.6c.624-1.72 4.589-4.231 5.039-4.512a.5.5 0 0 1 .739.269c.166.5 1.6 4.974.976 6.694a3.6 3.6 0 0 1 -3.375 2.37zm1.643-8.131c-1.588 1.051-3.742 2.715-4.083 3.653a2.593 2.593 0 0 0 4.875 1.768c.34-.939-.247-3.597-.792-5.421z" fill="#323c6b"/><path d="m60.544 42.36h-49.616a8.425 8.425 0 0 1 -.312-16.844 10.959 10.959 0 0 1 10.758-12.977 10.761 10.761 0 0 1 3 .416 8.434 8.434 0 0 1 14.442-.771 10.816 10.816 0 0 1 7.406-2.89 10.959 10.959 0 0 1 10.945 10.947v.036a10.95 10.95 0 0 1 14.333 10.416c0 6.215-5.12 11.667-10.956 11.667zm-49.592-15.85h-.024a7.425 7.425 0 1 0 0 14.85h49.616c5.3 0 9.956-4.984 9.956-10.667a9.952 9.952 0 0 0 -13.674-9.23.5.5 0 0 1 -.685-.507c.021-.235.025-.475.025-.715a9.958 9.958 0 0 0 -9.946-9.947 9.831 9.831 0 0 0 -7.142 3.03.5.5 0 0 1 -.795-.1 7.434 7.434 0 0 0 -13.2.545.5.5 0 0 1 -.613.263 9.679 9.679 0 0 0 -3.1-.494 9.958 9.958 0 0 0 -9.946 9.947 9.844 9.844 0 0 0 .294 2.408.5.5 0 0 1 -.1.441.531.531 0 0 1 -.414.181c-.081-.005-.169-.005-.252-.005z" fill="#323c6b"/><path d="m20.871 15.5c-.005-.015-.011-.029-.018-.044a.6.6 0 0 0 -.794-.3 2.766 2.766 0 0 0 -.535.279.6.6 0 0 0 .612 1.03 1.9 1.9 0 0 1 .419-.218.6.6 0 0 0 .316-.747z" fill="#dbd8dd"/><path d="m18.585 17.074a.6.6 0 0 0 -.938-.3 9.048 9.048 0 0 0 -3.364 6.678.6.6 0 0 0 1.162.293 7.923 7.923 0 0 1 2.929-6.019.6.6 0 0 0 .211-.652z" fill="#dbd8dd"/></g></svg>