<svg height="512" viewBox="0 0 74 74" width="512" xmlns="http://www.w3.org/2000/svg"><g id="line_color" data-name="line color"><g fill="#323c6b"><path d="m37 71.5a.5.5 0 0 1 -.5-.5v-27.2a.5.5 0 0 1 1 0v27.2a.5.5 0 0 1 -.5.5z"/><path d="m37 30.7a.5.5 0 0 1 -.5-.5v-27.2a.5.5 0 0 1 1 0v27.2a.5.5 0 0 1 -.5.5z"/><path d="m37 13.191a.5.5 0 0 1 -.354-.146l-5.8-5.8a.5.5 0 0 1 .707-.707l5.447 5.446 5.445-5.444a.5.5 0 0 1 .707.707l-5.8 5.8a.5.5 0 0 1 -.352.144z"/><path d="m37 21.95a.5.5 0 0 1 -.354-.146l-5.8-5.8a.5.5 0 0 1 .707-.707l5.447 5.446 5.445-5.443a.5.5 0 0 1 .707.707l-5.8 5.8a.5.5 0 0 1 -.352.143z"/><path d="m42.8 67.607a.5.5 0 0 1 -.354-.146l-5.446-5.445-5.445 5.444a.5.5 0 0 1 -.707-.707l5.8-5.8a.5.5 0 0 1 .707 0l5.8 5.8a.5.5 0 0 1 -.354.854z"/><path d="m42.8 58.849a.5.5 0 0 1 -.354-.146l-5.446-5.446-5.445 5.443a.5.5 0 0 1 -.707-.7l5.8-5.8a.5.5 0 0 1 .707 0l5.8 5.8a.5.5 0 0 1 -.354.854z"/><path d="m30.2 37.5h-27.2a.5.5 0 0 1 0-1h27.2a.5.5 0 0 1 0 1z"/><path d="m71 37.5h-27.2a.5.5 0 0 1 0-1h27.2a.5.5 0 0 1 0 1z"/><path d="m67.107 43.3a.5.5 0 0 1 -.354-.146l-5.8-5.8a.5.5 0 0 1 0-.707l5.8-5.8a.5.5 0 0 1 .707.707l-5.444 5.446 5.445 5.445a.5.5 0 0 1 -.354.854z"/><path d="m58.349 43.3a.5.5 0 0 1 -.349-.148l-5.8-5.8a.5.5 0 0 1 0-.707l5.8-5.8a.5.5 0 0 1 .707.707l-5.45 5.448 5.443 5.445a.5.5 0 0 1 -.354.854z"/><path d="m6.893 43.3a.5.5 0 0 1 -.354-.854l5.445-5.446-5.444-5.445a.5.5 0 0 1 .707-.707l5.8 5.8a.5.5 0 0 1 0 .707l-5.8 5.8a.5.5 0 0 1 -.354.145z"/><path d="m15.651 43.3a.5.5 0 0 1 -.354-.854l5.446-5.446-5.443-5.445a.5.5 0 0 1 .7-.707l5.8 5.8a.5.5 0 0 1 0 .707l-5.8 5.8a.5.5 0 0 1 -.349.145z"/><path d="m61.043 61.543a.5.5 0 0 1 -.354-.146l-19.234-19.235a.5.5 0 0 1 .707-.707l19.238 19.234a.5.5 0 0 1 -.354.854z"/><path d="m32.191 32.691a.5.5 0 0 1 -.354-.146l-19.237-19.234a.5.5 0 0 1 .707-.707l19.238 19.234a.5.5 0 0 1 -.354.854z"/><path d="m19.812 20.312h-8.2a.5.5 0 0 1 0-1h7.7v-7.7a.5.5 0 0 1 1 0v8.2a.5.5 0 0 1 -.5.5z"/><path d="m26 26.5h-8.2a.5.5 0 0 1 0-1h7.7v-7.7a.5.5 0 0 1 1 0v8.2a.5.5 0 0 1 -.5.5z"/><path d="m54.188 62.889a.5.5 0 0 1 -.5-.5v-8.2a.5.5 0 0 1 .5-.5h8.2a.5.5 0 1 1 0 1h-7.7v7.7a.5.5 0 0 1 -.5.5z"/><path d="m48 56.7a.5.5 0 0 1 -.5-.5v-8.2a.5.5 0 0 1 .5-.5h8.2a.5.5 0 0 1 0 1h-7.7v7.7a.5.5 0 0 1 -.5.5z"/><path d="m12.957 61.543a.5.5 0 0 1 -.354-.854l19.235-19.234a.5.5 0 0 1 .707.707l-19.234 19.238a.5.5 0 0 1 -.354.143z"/><path d="m41.809 32.691a.5.5 0 0 1 -.354-.854l19.234-19.237a.5.5 0 0 1 .707.707l-19.234 19.238a.5.5 0 0 1 -.353.146z"/><path d="m62.389 20.312h-8.2a.5.5 0 0 1 -.5-.5v-8.2a.5.5 0 0 1 1 0v7.7h7.7a.5.5 0 0 1 0 1z"/><path d="m56.2 26.5h-8.2a.5.5 0 0 1 -.5-.5v-8.2a.5.5 0 0 1 1 0v7.7h7.7a.5.5 0 0 1 0 1z"/><path d="m19.812 62.889a.5.5 0 0 1 -.5-.5v-7.7h-7.7a.5.5 0 0 1 0-1h8.2a.5.5 0 0 1 .5.5v8.2a.5.5 0 0 1 -.5.5z"/><path d="m26 56.7a.5.5 0 0 1 -.5-.5v-7.7h-7.7a.5.5 0 0 1 0-1h8.2a.5.5 0 0 1 .5.5v8.2a.5.5 0 0 1 -.5.5z"/></g><circle cx="37" cy="37" fill="#eeefee" r="6.8"/><path d="m37 44.3a7.3 7.3 0 1 1 7.3-7.3 7.308 7.308 0 0 1 -7.3 7.3zm0-13.6a6.3 6.3 0 1 0 6.3 6.3 6.307 6.307 0 0 0 -6.3-6.3z" fill="#323c6b"/><path d="m37 30.2a6.786 6.786 0 0 0 -5.7 3.1 6.8 6.8 0 0 1 9.4 9.4 6.8 6.8 0 0 0 -3.7-12.5z" fill="#dbd8dd"/><path d="m37 44.3a7.3 7.3 0 1 1 7.3-7.3 7.308 7.308 0 0 1 -7.3 7.3zm0-13.6a6.3 6.3 0 1 0 6.3 6.3 6.307 6.307 0 0 0 -6.3-6.3z" fill="#323c6b"/></g></svg>