<svg height="512" viewBox="0 0 74 74" width="512" xmlns="http://www.w3.org/2000/svg"><g id="line_color" data-name="line color"><path d="m59.029 37a22.029 22.029 0 1 1 -22.034-22.023 22.024 22.024 0 0 1 22.034 22.023z" fill="#fed19a"/><path d="m36.995 59.523a22.523 22.523 0 1 1 22.534-22.523 22.549 22.549 0 0 1 -22.534 22.523zm0-44.047a21.523 21.523 0 1 0 21.534 21.524 21.548 21.548 0 0 0 -21.534-21.523z" fill="#323c6b"/><path d="m36.995 14.977a22 22 0 0 0 -18.283 9.741 22.029 22.029 0 0 1 30.577 30.562 22.024 22.024 0 0 0 -12.294-40.3z" fill="#f4bb87"/><g fill="#323c6b"><path d="m37 10.212a.5.5 0 0 1 -.5-.5v-6.712a.5.5 0 0 1 1 0v6.712a.5.5 0 0 1 -.5.5z"/><path d="m37 71.5a.5.5 0 0 1 -.5-.5v-6.712a.5.5 0 0 1 1 0v6.712a.5.5 0 0 1 -.5.5z"/><path d="m37 68.479a.5.5 0 0 1 -.5-.5v-3.691a.5.5 0 0 1 1 0v3.691a.5.5 0 0 1 -.5.5z"/><path d="m29.941 11.174a.5.5 0 0 1 -.482-.371l-.959-3.565a.5.5 0 1 1 .966-.259l.955 3.566a.5.5 0 0 1 -.483.629z"/><path d="m45.022 67.457a.5.5 0 0 1 -.482-.371l-.956-3.566a.5.5 0 1 1 .966-.259l.956 3.566a.5.5 0 0 1 -.483.629z"/><path d="m23.374 13.931a.5.5 0 0 1 -.434-.25l-1.846-3.2a.5.5 0 0 1 .866-.5l1.846 3.2a.5.5 0 0 1 -.433.75z"/><path d="m52.507 64.392a.5.5 0 0 1 -.434-.25l-1.846-3.2a.5.5 0 0 1 .866-.5l1.846 3.2a.5.5 0 0 1 -.433.75z"/><path d="m13.43 23.965a.5.5 0 0 1 -.25-.067l-3.2-1.846a.5.5 0 1 1 .5-.866l3.2 1.846a.5.5 0 0 1 -.25.933z"/><path d="m63.892 53.1a.5.5 0 0 1 -.25-.067l-3.2-1.846a.5.5 0 1 1 .5-.866l3.2 1.846a.5.5 0 0 1 -.25.933z"/><path d="m10.735 30.559a.5.5 0 0 1 -.13-.017l-3.565-.956a.5.5 0 1 1 .259-.966l3.565.956a.5.5 0 0 1 -.129.983z"/><path d="m67.018 45.64a.5.5 0 0 1 -.13-.017l-3.565-.956a.5.5 0 1 1 .259-.966l3.565.956a.5.5 0 0 1 -.129.983z"/><path d="m7.234 45.64a.5.5 0 0 1 -.129-.983l3.566-.956a.5.5 0 1 1 .259.966l-3.566.956a.5.5 0 0 1 -.13.017z"/><path d="m63.516 30.559a.5.5 0 0 1 -.129-.983l3.566-.956a.5.5 0 1 1 .259.966l-3.566.956a.5.5 0 0 1 -.13.017z"/><path d="m10.36 53.1a.5.5 0 0 1 -.25-.933l3.2-1.846a.5.5 0 0 1 .5.866l-3.2 1.846a.5.5 0 0 1 -.25.067z"/><path d="m60.821 23.965a.5.5 0 0 1 -.25-.933l3.2-1.846a.5.5 0 1 1 .5.866l-3.2 1.846a.5.5 0 0 1 -.25.067z"/><path d="m21.745 64.392a.5.5 0 0 1 -.433-.75l1.846-3.2a.5.5 0 0 1 .866.5l-1.846 3.2a.5.5 0 0 1 -.433.25z"/><path d="m50.878 13.931a.5.5 0 0 1 -.433-.75l1.846-3.2a.5.5 0 1 1 .866.5l-1.846 3.2a.5.5 0 0 1 -.433.25z"/><path d="m29.23 67.457a.5.5 0 0 1 -.483-.629l.955-3.566a.5.5 0 1 1 .966.259l-.955 3.566a.5.5 0 0 1 -.483.37z"/><path d="m44.311 11.174a.5.5 0 0 1 -.483-.629l.956-3.566a.5.5 0 0 1 .966.259l-.957 3.562a.5.5 0 0 1 -.482.374z"/><path d="m9.712 37.5h-6.712a.5.5 0 0 1 0-1h6.712a.5.5 0 0 1 0 1z"/><path d="m71 37.5h-6.712a.5.5 0 0 1 0-1h6.712a.5.5 0 0 1 0 1z"/><path d="m17.7 18.2a.5.5 0 0 1 -.354-.146l-5.036-5.037a.5.5 0 0 1 .707-.707l5.041 5.041a.5.5 0 0 1 -.354.854z"/><path d="m61.336 61.836a.5.5 0 0 1 -.354-.146l-5.041-5.041a.5.5 0 0 1 .707-.707l5.041 5.041a.5.5 0 0 1 -.354.854z"/><path d="m56.3 18.2a.5.5 0 0 1 -.354-.854l5.041-5.041a.5.5 0 0 1 .707.707l-5.041 5.041a.5.5 0 0 1 -.353.147z"/><path d="m12.664 61.836a.5.5 0 0 1 -.354-.854l5.041-5.041a.5.5 0 0 1 .707.707l-5.041 5.042a.5.5 0 0 1 -.353.146z"/><path d="m36.995 59.523a22.523 22.523 0 1 1 22.534-22.523 22.549 22.549 0 0 1 -22.534 22.523zm0-44.047a21.523 21.523 0 1 0 21.534 21.524 21.548 21.548 0 0 0 -21.534-21.523z"/></g><g fill="#eeefee"><path d="m20.883 33.189c-.026-.005-.052-.01-.079-.014a1.018 1.018 0 0 0 -1.142.876 4.7 4.7 0 0 0 -.079 1.021 1.018 1.018 0 1 0 2.035.044 3.226 3.226 0 0 1 .063-.8 1.018 1.018 0 0 0 -.798-1.127z"/><path d="m21.091 37.9a1.019 1.019 0 0 0 -1.282 1.078c.678 7.147 6.4 10.654 6.595 10.853a1.018 1.018 0 0 0 1.468-1.411 13.456 13.456 0 0 1 -6.037-9.635 1.018 1.018 0 0 0 -.744-.885z"/></g></g></svg>