<svg height="512" viewBox="0 0 74 74" width="512" xmlns="http://www.w3.org/2000/svg"><g id="line_color" data-name="line color"><g fill="#323c6b"><path d="m42.419 65.649a.51.51 0 0 1 -.149-.022q-.4-.124-.775-.282a.5.5 0 0 1 .385-.923q.337.141.688.25a.5.5 0 0 1 -.149.978z"/><path d="m44.908 66.027a.5.5 0 0 1 0-1 7.841 7.841 0 0 0 6.692-3.727.5.5 0 0 1 .849.528 8.834 8.834 0 0 1 -7.541 4.199z"/><path d="m44.908 63.027a5.883 5.883 0 0 1 -5.876-5.877.5.5 0 0 1 1 0 4.877 4.877 0 1 0 4.876-4.876.5.5 0 0 1 0-1 5.877 5.877 0 1 1 0 11.753z"/><path d="m28.163 52.273h-3.971a.5.5 0 1 1 0-1h3.971a.5.5 0 1 1 0 1z"/><path d="m44.908 52.273h-12.5a.5.5 0 0 1 0-1h12.5a.5.5 0 0 1 0 1z"/><path d="m65.623 63.027a5.883 5.883 0 0 1 -5.876-5.877.5.5 0 0 1 1 0 4.877 4.877 0 1 0 4.876-4.876.5.5 0 0 1 0-1 5.877 5.877 0 1 1 0 11.753z"/><path d="m65.623 52.273h-13.043a.5.5 0 0 1 0-1h13.043a.5.5 0 0 1 0 1z"/><path d="m63.523 31.707a.5.5 0 0 1 0-1 4.877 4.877 0 1 0 -4.877-4.877.5.5 0 0 1 -1 0 5.877 5.877 0 1 1 5.877 5.877z"/><path d="m63.525 31.7h-10.257a.5.5 0 0 1 0-1h10.257a.5.5 0 0 1 0 1z"/><path d="m47.69 22.727a.5.5 0 0 1 0-1 4.877 4.877 0 1 0 -4.876-4.876.5.5 0 1 1 -1 0 5.877 5.877 0 1 1 5.876 5.876z"/><path d="m47.687 22.727h-6.747a.5.5 0 0 1 0-1h6.747a.5.5 0 0 1 0 1z"/><path d="m.117 37.382a.5.5 0 0 1 -.495-.432 13.2 13.2 0 0 1 -.123-1.8 12.9 12.9 0 0 1 2.289-7.384.5.5 0 1 1 .822.569 11.9 11.9 0 0 0 -2.11 6.816 12.313 12.313 0 0 0 .113 1.663.5.5 0 0 1 -.427.563.465.465 0 0 1 -.069.005z"/><path d="m.988 40.547a.5.5 0 0 1 -.46-.3q-.116-.277-.22-.557a.5.5 0 1 1 .938-.348q.1.258.2.51a.5.5 0 0 1 -.46.7z"/></g><path d="m11.61 44.283a8.881 8.881 0 0 1 -8.61-9.132 8.881 8.881 0 0 1 8.61-9.131c.123 0 .246 0 .365.009a6.779 6.779 0 0 1 -.365-2.209 6.3 6.3 0 0 1 6.1-6.47 6.048 6.048 0 0 1 5.318 3.3 10 10 0 0 1 8.556-4.983c5.6 0 10.147 4.818 10.147 10.762 0 .174 0 .348-.012.517a8.209 8.209 0 0 1 3.784-.926 8.881 8.881 0 0 1 8.61 9.131 8.881 8.881 0 0 1 -8.61 9.131z" fill="#b6d2dd"/><path d="m45.508 44.783h-33.898a9.392 9.392 0 0 1 -9.11-9.632 9.414 9.414 0 0 1 8.809-9.626 7.324 7.324 0 0 1 -.2-1.706 6.8 6.8 0 0 1 6.6-6.97 6.5 6.5 0 0 1 5.331 2.861 10.4 10.4 0 0 1 8.543-4.544c5.786 0 10.509 4.908 10.644 10.994a8.62 8.62 0 0 1 3.275-.641 9.393 9.393 0 0 1 9.11 9.632 9.392 9.392 0 0 1 -9.104 9.632zm-33.898-18.263a8.393 8.393 0 0 0 -8.11 8.631 8.392 8.392 0 0 0 8.11 8.631h33.9a8.392 8.392 0 0 0 8.11-8.631 8.393 8.393 0 0 0 -8.11-8.632 7.672 7.672 0 0 0 -3.555.871.5.5 0 0 1 -.729-.469c.008-.162.012-.327.012-.493 0-5.658-4.328-10.262-9.647-10.262a9.473 9.473 0 0 0 -8.128 4.74.511.511 0 0 1 -.442.243.5.5 0 0 1 -.429-.266 5.562 5.562 0 0 0 -4.875-3.035 5.8 5.8 0 0 0 -5.6 5.97 6.287 6.287 0 0 0 .337 2.046.5.5 0 0 1 -.071.46.517.517 0 0 1 -.42.2c-.12 0-.236-.004-.353-.004z" fill="#323c6b"/><path d="m11.61 29.02c.123 0 .9 0 1.016.009a6.779 6.779 0 0 1 -.365-2.209 6.888 6.888 0 0 1 .051-.8h-.051a9.434 9.434 0 0 0 -9.261 9.131 9.7 9.7 0 0 0 .126 1.5 8.771 8.771 0 0 1 8.484-7.631z" fill="#acc6cc"/><path d="m17.715 20.349a6.048 6.048 0 0 1 5.318 3.3 10 10 0 0 1 8.556-4.983c5.6 0 10.147 4.818 10.147 10.762 0 .174 0 .348-.012.517a8.209 8.209 0 0 1 3.784-.926 8.771 8.771 0 0 1 8.484 7.631 9.7 9.7 0 0 0 .126-1.5 8.881 8.881 0 0 0 -8.61-9.131 8.209 8.209 0 0 0 -3.784.926c.008-.17.012-.344.012-.517 0-5.944-4.543-10.762-10.147-10.762a10 10 0 0 0 -8.556 4.983 6.048 6.048 0 0 0 -5.318-3.3 6.3 6.3 0 0 0 -6.1 6.47 6.8 6.8 0 0 0 .178 1.472 6.186 6.186 0 0 1 5.922-4.942z" fill="#acc6cc"/><g fill="#323c6b"><path d="m69.6 44.783h-3.279a.5.5 0 0 1 0-1h3.279a.5.5 0 0 1 0 1z"/><path d="m61.066 44.783h-15.558a.5.5 0 0 1 0-1h15.558a.5.5 0 0 1 0 1z"/><path d="m45.508 44.783h-33.898a9.392 9.392 0 0 1 -9.11-9.632 9.414 9.414 0 0 1 8.809-9.626 7.324 7.324 0 0 1 -.2-1.706 6.8 6.8 0 0 1 6.6-6.97 6.5 6.5 0 0 1 5.331 2.861 10.4 10.4 0 0 1 8.543-4.544c5.786 0 10.509 4.908 10.644 10.994a8.62 8.62 0 0 1 3.275-.641 9.393 9.393 0 0 1 9.11 9.632 9.392 9.392 0 0 1 -9.104 9.632zm-33.898-18.263a8.393 8.393 0 0 0 -8.11 8.631 8.392 8.392 0 0 0 8.11 8.631h33.9a8.392 8.392 0 0 0 8.11-8.631 8.393 8.393 0 0 0 -8.11-8.632 7.672 7.672 0 0 0 -3.555.871.5.5 0 0 1 -.729-.469c.008-.162.012-.327.012-.493 0-5.658-4.328-10.262-9.647-10.262a9.473 9.473 0 0 0 -8.128 4.74.511.511 0 0 1 -.442.243.5.5 0 0 1 -.429-.266 5.562 5.562 0 0 0 -4.875-3.035 5.8 5.8 0 0 0 -5.6 5.97 6.287 6.287 0 0 0 .337 2.046.5.5 0 0 1 -.071.46.517.517 0 0 1 -.42.2c-.12 0-.236-.004-.353-.004z"/></g></g></svg>